<?xml version="1.0" standalone="no"?>
<!DOCTYPE svg PUBLIC "-//W3C//DTD SVG 20010904//EN"
 "http://www.w3.org/TR/2001/REC-SVG-20010904/DTD/svg10.dtd">
<svg version="1.0" xmlns="http://www.w3.org/2000/svg"
 width="228.000000pt" height="143.000000pt" viewBox="0 0 228.000000 143.000000"
 preserveAspectRatio="xMidYMid meet">
<metadata>
Created by potrace 1.16, written by Peter Selinger 2001-2019
</metadata>
<g transform="translate(0.000000,143.000000) scale(0.100000,-0.100000)"
fill="#000000" stroke="none">
<path d="M1206 1178 c-20 -32 -33 -87 -46 -203 -7 -55 -13 -102 -15 -104 -2
-2 -19 6 -38 18 -19 11 -37 21 -41 21 -17 0 -2 -41 29 -77 l35 -41 -21 -36
c-13 -22 -33 -39 -55 -46 -32 -11 -38 -10 -60 11 -17 16 -24 33 -24 61 0 47
-15 49 -91 11 -59 -31 -99 -80 -99 -124 0 -36 -52 -81 -89 -77 -24 3 -26 7
-25 46 1 46 -2 48 -30 27 -11 -8 -30 -15 -43 -15 -18 0 -24 -8 -34 -42 -6 -24
-13 -48 -14 -54 -2 -7 -20 -17 -40 -24 -33 -11 -39 -10 -61 11 -17 16 -24 33
-24 61 0 47 -15 49 -91 10 -64 -32 -99 -79 -99 -132 0 -77 85 -72 150 9 32 39
34 40 47 21 17 -24 41 -25 88 -6 34 15 48 35 59 88 4 17 16 29 36 36 29 10 30
10 30 -17 0 -58 45 -67 109 -21 33 25 45 28 61 20 29 -16 81 10 120 59 32 39
34 40 47 21 8 -11 23 -20 34 -20 38 0 88 28 104 59 25 50 35 37 35 -46 0 -93
24 -183 58 -220 l25 -27 18 23 c15 19 19 40 19 105 -1 44 -7 99 -15 121 -24
65 -21 75 23 75 42 0 112 41 112 66 0 12 -7 9 -32 -9 -18 -14 -50 -30 -70 -36
-32 -11 -42 -10 -67 5 -17 10 -33 24 -35 31 -3 7 8 41 25 76 50 108 63 291 22
304 -6 2 -18 -6 -27 -19z"/>
<path d="M1738 1174 c-3 -5 -8 -26 -12 -46 -4 -23 -15 -42 -27 -49 -12 -6 -18
-13 -15 -16 3 -3 13 0 21 7 14 12 16 5 13 -66 l-3 -78 -38 -15 c-36 -13 -39
-13 -62 9 -18 17 -25 34 -25 62 0 47 -15 49 -91 11 -64 -33 -99 -80 -99 -133
0 -77 85 -72 150 8 32 41 33 41 50 20 14 -17 23 -20 54 -14 21 4 48 17 60 30
18 17 31 21 63 18 34 -3 46 1 77 28 44 40 40 54 -5 16 -45 -38 -93 -33 -97 8
-6 52 8 117 26 122 68 22 84 44 18 26 -33 -10 -36 -9 -36 11 0 26 -15 53 -22
41z"/>
</g>
</svg>
